# xmcd CD database file
#
# Track frame offsets:
#	150
#	14907
#	29102
#	41614
#	55150
#	69522
#	84185
#	97890
#	111419
#	124084
#	139488
#	151291
#	166230
#	181025
#	196196
#	210070
#	224117
#	236913
#
# Disc length: 3321 seconds
#
# Revision: 0
# Processed by: cddbd v1.5.2PL0 Copyright (c) Steve Scherf et al.
# Submitted via: CDex 1.51
#
DISCID=010cf712
DTITLE=Django Reinhardt - Kind Of Reinhardt [CD6] - Electric Django
DYEAR=2009
DGENRE=Jazz
TTITLE0=Deccaphonie (Reinhardt)
TTITLE1=DR Blues (Reinhardt)
TTITLE2=Impromptu (Reinhardt)
TTITLE3=Fleche D'or (Reinhardt)
TTITLE4=Fine And Dandy (Swift/James)
TTITLE5=Dream Of You (Oliver/Lunceford)
TTITLE6=Chez Moi (Misrak)
TTITLE7=Songs D'automne (Joyce)
TTITLE8=Delle Salle (Reinhardt)
TTITLE9=I Cover The Waterfront (Green)
TTITLE10=Vamp (Reinhardt)
TTITLE11=Porto Cabello (Reinhardt)
TTITLE12=Duke and Dukie Part 1 (Reinhardt)
TTITLE13=Duke and Dukie Part 2 (Reinhardt)
TTITLE14=Keep Cool (Fol)
TTITLE15=Nuits De Saint Germain Des Prés (Reinhardt)
TTITLE16=Babik (Reinhardt)
TTITLE17=Anouman (Reinhardt)
EXTD=YEAR: 2009
EXTT0=
EXTT1=
EXTT2=
EXTT3=
EXTT4=
EXTT5=
EXTT6=
EXTT7=
EXTT8=
EXTT9=
EXTT10=
EXTT11=
EXTT12=
EXTT13=
EXTT14=
EXTT15=
EXTT16=
EXTT17=
PLAYORDER=
